<?xml version="1.0" encoding="UTF-8" standalone="no"?>
<svg height="1024" width="1024" xmlns="http://www.w3.org/2000/svg">
  <path
    id="godot"
    fill="#0097a7"
    transform="matrix(4.162611 0 0 -4.162611 784.07144 718.723121)"
    d="m 0,0 -1.121,-16.063 c -0.135,-1.936 -1.675,-3.477 -3.611,-3.616 l -38.555,-2.751 c -0.094,-0.007 -0.188,-0.01 -0.281,-0.01 -1.916,0 -3.569,1.406 -3.852,3.33 l -2.211,14.994 H -81.09 l -2.211,-14.994 c -0.297,-2.018 -2.101,-3.469 -4.133,-3.32 l -38.555,2.751 c -1.936,0.139 -3.476,1.68 -3.611,3.616 L -130.721,0 -163.268,3.138 c 0.015,-3.498 0.06,-7.33 0.06,-8.093 0,-34.374 43.605,-50.896 97.781,-51.086 h 0.066 0.067 c 54.176,0.19 97.766,16.712 97.766,51.086 0,0.777 0.047,4.593 0.063,8.093 z m -163.20827,69.988733 v -47.514 -6.035 -5.492 c 0.108,-10e-4 0.216,-0.005 0.323,-0.015 l 36.196,-3.49 c 1.896,-0.183 3.382,-1.709 3.514,-3.609 l 1.116,-15.978 31.574005,-2.253 2.175,14.74700003 c 0.282,1.91199997 1.922,3.32899997 3.856,3.32899997 h 38.188 c 1.933,0 3.573,-1.417 3.855,-3.32899997 l 2.175,-14.74700003 31.5749998,2.253 1.115,15.978 c 0.133,1.9 1.618,3.425 3.514,3.609 l 36.1820002,3.49 c 0.107,0.01 0.214,0.014 0.322,0.015 v 4.711 l 0.015,0.005 v 54.325 c 5.09692,6.416472 9.92323,13.494208 13.621,19.449 -5.651,9.62 -12.575,18.216997 -19.976,26.181997 -6.864,-3.455 -13.531,-7.369 -19.8280002,-11.534 -3.151,3.132 -6.7,5.694 -10.186,8.372 -3.425,2.751 -7.2849998,4.768 -10.9459998,7.118 1.09,8.117 1.629,16.108 1.846,24.448 -9.446,4.754 -19.519,7.906 -29.708,10.17 -4.068,-6.837 -7.788,-14.241 -11.028,-21.479 -3.842,0.642 -7.702,0.88 -11.567,0.926 v 0.006 c -0.027,0 -0.052,-0.006 -0.075,-0.006 -0.024,0 -0.049,0.006 -0.073,0.006 v -0.006 c -3.872,-0.046 -7.729,-0.284 -11.572,-0.926 -3.238,7.238 -6.956,14.642 -11.03,21.479 -10.184,-2.264 -20.258005,-5.416 -29.703005,-10.17 0.216,-8.34 0.755,-16.331 1.848,-24.448 -3.668,-2.35 -7.523,-4.367 -10.949,-7.118 -3.481,-2.678 -7.036,-5.24 -10.188,-8.372 -6.297,4.165 -12.962,8.079 -19.828,11.534 -7.401,-7.965 -14.321,-16.561997 -19.974,-26.181997 4.44266,-6.973692 9.20798,-13.982888 13.621,-19.449 z M 32.472203,10.947691 c 0,0 -0.325,1.994 -0.515,1.976 L -4.2247969,9.4326915 c -2.879,-0.278 -5.115,-2.574 -5.317,-5.459 l -0.9940001,-14.2470005 -27.992,-1.997 -1.904,12.91200048 c -0.424,2.87200002 -2.932,5.03700002 -5.835,5.03700002 h -38.188 c -2.902,0 -5.41,-2.165 -5.834,-5.03700002 l -1.905,-12.91200048 -27.992003,1.997 -0.994,14.2470005 c -0.202,2.886 -2.438,5.182 -5.317,5.46 l -36.2,3.4899995 c -0.187,0.018 -0.324,-1.978 -0.511,-1.978 l -0.049,-7.8299995 30.658,-4.944 1.004,-14.3740005 c 0.203,-2.91 2.551,-5.263 5.463,-5.472 l 38.551003,-2.75 c 0.146,-0.01 0.29,-0.016 0.434,-0.016 2.897,0 5.401,2.166 5.825,5.038 l 1.959,13.2860005 h 28.005 l 1.959,-13.2860005 c 0.423,-2.871 2.93,-5.037 5.831,-5.037 0.142,0 0.284,0.005 0.423,0.015 l 38.5560001,2.75 c 2.911,0.209 5.26000004,2.562 5.46300004,5.472 l 1.00299996,14.3740005 30.6449999,4.966 z"/>
  <path
    id="mediapipe"
    fill="#ffffff"
    d="M 485.81818,823.63636 A 52.363636,52.363636 0 0 1 433.45455,876 a 52.363636,52.363636 0 0 1 -52.36364,-52.36364 52.363636,52.363636 0 0 1 52.36364,-52.36363 52.363636,52.363636 0 0 1 52.36363,52.36363 z m 52.36364,-314.18181 0.0249,-1.63099 c 0.86176,-28.16498 23.96478,-50.73265 52.33876,-50.73265 28.91964,0 52.36364,23.444 52.36364,52.36364 v 0 314.18181 c 0,28.91965 -23.444,52.36364 -52.36364,52.36364 -28.91963,0 -52.36363,-23.44399 -52.36363,-52.36364 v 0 z m 157.09091,-157.09091 0.0249,-1.63099 C 696.15935,322.56767 719.26238,300 747.63636,300 776.55601,300 800,323.444 800,352.36364 v 0 471.27272 C 800,852.55601 776.55601,876 747.63636,876 c -28.91964,0 -52.36363,-23.44399 -52.36363,-52.36364 v 0 z m -314.18182,0 0.0249,-1.63099 C 381.97754,322.56767 405.08056,300 433.45455,300 c 28.91963,0 52.36363,23.444 52.36363,52.36364 v 0 314.18181 c 0,28.91964 -23.444,52.36364 -52.36363,52.36364 -28.91964,0 -52.36364,-23.444 -52.36364,-52.36364 v 0 z m -157.09091,0 0.0249,-1.63099 C 224.88663,322.56767 247.98966,300 276.36364,300 c 28.91964,0 52.36363,23.444 52.36363,52.36364 v 0 157.09091 c 0,28.91963 -23.44399,52.36363 -52.36363,52.36363 C 247.444,561.81818 224,538.37418 224,509.45455 v 0 z m 0,314.18181 0.0249,-1.63099 c 0.86176,-28.16498 23.96479,-50.73264 52.33877,-50.73264 28.91964,0 52.36363,23.444 52.36363,52.36363 v 0 157.09091 C 328.72727,852.55601 305.28328,876 276.36364,876 247.444,876 224,852.55601 224,823.63636 v 0 z M 642.90909,352.36364 A 52.363636,52.363636 0 0 1 590.54545,404.72727 52.363636,52.363636 0 0 1 538.18182,352.36364 52.363636,52.363636 0 0 1 590.54545,300 a 52.363636,52.363636 0 0 1 52.36364,52.36364 z"/>
</svg>
